<svg xmlns="http://www.w3.org/2000/svg" xmlns:xlink="http://www.w3.org/1999/xlink" width="32" height="32" fill="none"><style>.B{stroke-width:1.25}.C{color-interpolation-filters:sRGB}.D{flood-opacity:0}</style><g clip-path="url(#S)"><g filter="url(#A)"><use xlink:href="#T" fill="#c8bdcd"/></g><use xlink:href="#T" fill="url(#E)"/><use xlink:href="#T" fill="url(#F)"/><use xlink:href="#T" fill="url(#G)"/><use xlink:href="#T" fill="url(#H)"/><use xlink:href="#T" fill="url(#I)"/><g class="B" filter="url(#B)"><rect width="12.7" height="18.6" x="23" y=".8" stroke="url(#J)" rx="6.3" transform="rotate(45 23 .8)"/><rect width="12.7" height="18.6" x="23" y=".8" stroke="url(#K)" rx="6.3" transform="rotate(45 23 .8)"/></g><g filter="url(#C)"><use xlink:href="#U" fill="#c8bdcd"/></g><use xlink:href="#U" fill="url(#L)"/><use xlink:href="#U" fill="url(#M)"/><use xlink:href="#U" fill="url(#N)"/><use xlink:href="#U" fill="url(#O)"/><use xlink:href="#U" fill="url(#P)"/><g class="B" filter="url(#D)"><rect width="12.7" height="17.9" x="14.7" y="8.8" stroke="url(#Q)" rx="6.3" transform="rotate(45 14.7 8.8)"/><rect width="12.7" height="17.9" x="14.7" y="8.8" stroke="url(#R)" rx="6.3" transform="rotate(45 14.7 8.8)"/></g></g><defs><radialGradient xlink:href="#V" id="E" cx="0" cy="0" r="1" gradientTransform="matrix(.2 13.8 -14 .2 19.3 9.2)"><stop offset=".8" stop-color="#a08faf" stop-opacity="0"/><stop offset="1" stop-color="#8c72a5"/></radialGradient><radialGradient xlink:href="#V" id="F" cx="0" cy="0" r="1" gradientTransform="matrix(.9 -2.5 7.1 2.4 14.6 10.8)"><stop stop-color="#cdc4d3"/><stop offset="1" stop-color="#cdc4d3" stop-opacity="0"/></radialGradient><radialGradient xlink:href="#V" id="H" cx="0" cy="0" r="1" gradientTransform="matrix(.8 -3.8 5 1 23.4 7.9)"><stop stop-color="#9378a9"/><stop offset="1" stop-color="#ab9fb5" stop-opacity="0"/></radialGradient><radialGradient xlink:href="#V" id="I" cx="0" cy="0" r="1" gradientTransform="matrix(.9 2.5 -6.4 2.2 12 14)"><stop offset=".2" stop-color="#9789a3"/><stop offset="1" stop-color="#9789a3" stop-opacity="0"/></radialGradient><radialGradient xlink:href="#V" id="L" cx="0" cy="0" r="1" gradientTransform="matrix(.2 13.8 -14 .2 11.3 17.2)"><stop offset=".8" stop-color="#a08faf" stop-opacity="0"/><stop offset="1" stop-color="#8c72a5"/></radialGradient><radialGradient xlink:href="#V" id="M" cx="0" cy="0" r="1" gradientTransform="matrix(.9 -2.5 7.1 2.4 6.5 18.8)"><stop stop-color="#cdc4d3"/><stop offset="1" stop-color="#cdc4d3" stop-opacity="0"/></radialGradient><radialGradient xlink:href="#V" id="O" cx="0" cy="0" r="1" gradientTransform="matrix(.8 -3.8 5 1 15.3 15.9)"><stop offset=".4" stop-color="#9378a9"/><stop offset="1" stop-color="#ab9fb5" stop-opacity="0"/></radialGradient><radialGradient xlink:href="#V" id="P" cx="0" cy="0" r="1" gradientTransform="matrix(-4.8 4 -2.3 -2.8 21.5 19)"><stop offset=".2" stop-color="#92889c"/><stop offset="1" stop-color="#92889c" stop-opacity="0"/></radialGradient><linearGradient xlink:href="#V" id="G" x1="12.3" x2="13.8" y1="8.4" y2="9.9"><stop offset=".3" stop-color="#ded6e0"/><stop offset="1" stop-color="#ded6e0" stop-opacity="0"/></linearGradient><linearGradient xlink:href="#V" id="J" x1="34.8" x2="30.4" y1="-1.1" y2="6.7"><stop offset=".3" stop-color="#f1e9f5"/><stop offset="1" stop-color="#f1e9f5" stop-opacity="0"/></linearGradient><linearGradient xlink:href="#V" id="K" x1="23.3" x2="27.9" y1="17.1" y2="14.6"><stop offset=".1" stop-color="#c9bdd2"/><stop offset="1" stop-color="#f1e9f5" stop-opacity="0"/><stop offset="1" stop-color="#c9bdd2" stop-opacity="0"/></linearGradient><linearGradient xlink:href="#V" id="N" x1="4.2" x2="5.7" y1="16.4" y2="17.9"><stop stop-color="#ded6e0"/><stop offset="1" stop-color="#ded6e0" stop-opacity="0"/></linearGradient><linearGradient xlink:href="#V" id="Q" x1="18.7" x2="21.7" y1="7.2" y2="14.5"><stop stop-color="#f1e9f5"/><stop offset="1" stop-color="#f1e9f5" stop-opacity="0"/></linearGradient><linearGradient xlink:href="#V" id="R" x1="21.9" x2="19.8" y1="26.8" y2="22"><stop offset=".1" stop-color="#e3d8ea"/><stop offset="1" stop-color="#f1e9f5" stop-opacity="0"/><stop offset="1" stop-color="#e3d8ea" stop-opacity="0"/></linearGradient><linearGradient id="V" gradientUnits="userSpaceOnUse"/><filter id="A" width="20.2" height="20.3" x="10.8" y="1.5" class="C" filterUnits="userSpaceOnUse"><feFlood class="D"/><feBlend in="SourceGraphic" result="B"/><feColorMatrix in="SourceAlpha" result="C" values="0 0 0 0 0 0 0 0 0 0 0 0 0 0 0 0 0 0 127 0"/><feOffset dx=".7" dy="-.7"/><feGaussianBlur stdDeviation=".6"/><feComposite in2="C" k2="-1" k3="1" operator="arithmetic"/><feColorMatrix values="0 0 0 0 0.65098 0 0 0 0 0.588235 0 0 0 0 0.701961 0 0 0 1 0"/><feBlend in2="B"/></filter><filter id="B" width="20.1" height="20.1" x="10.8" y="1.8" class="C" filterUnits="userSpaceOnUse"><feFlood class="D"/><feBlend in="SourceGraphic"/><feGaussianBlur stdDeviation=".5"/></filter><filter id="C" width="20.2" height="20.3" x="2.8" y="9.5" class="C" filterUnits="userSpaceOnUse"><feFlood class="D"/><feBlend in="SourceGraphic" result="B"/><feColorMatrix in="SourceAlpha" result="C" values="0 0 0 0 0 0 0 0 0 0 0 0 0 0 0 0 0 0 127 0"/><feOffset dx=".7" dy="-.7"/><feGaussianBlur stdDeviation=".6"/><feComposite in2="C" k2="-1" k3="1" operator="arithmetic"/><feColorMatrix values="0 0 0 0 0.65098 0 0 0 0 0.588235 0 0 0 0 0.701961 0 0 0 1 0"/><feBlend in2="B"/></filter><filter id="D" width="19.6" height="19.6" x="3.1" y="9.8" class="C" filterUnits="userSpaceOnUse"><feFlood class="D"/><feBlend in="SourceGraphic"/><feGaussianBlur stdDeviation=".5"/></filter><path id="T" d="M28.1 4.4c-3-3-8-3-11 0l-4 4.1a7.8 7.8 0 0 0-1.7 2.4 7 7 0 0 1 4.5-.6l3.5-3.6a4.5 4.5 0 1 1 6.4 6.5l-4 4a4.5 4.5 0 0 1-6.5 0c-1-1-1.5-2.4-1.3-3.7a4.5 4.5 0 0 0-2.6 1.2l-.6.6A7.8 7.8 0 0 0 24 19.5l4.1-4c3-3 3-8 0-11z"/><path id="U" d="M15.9 10.3a7.8 7.8 0 0 1 6.4 6.3l-.6.6a4.5 4.5 0 0 1-2.5 1.3 4.5 4.5 0 0 0-5.2-5 4.5 4.5 0 0 0-2.3 1l-.3.2-4 4.1a4.5 4.5 0 1 0 6.4 6.4l3.5-3.5a7.8 7.8 0 0 0 4.5-.6 7.8 7.8 0 0 1-1.6 2.4l-4 4c-3.1 3-8 3-11.1 0s-3-8 0-11l4-4a7.8 7.8 0 0 1 6.8-2.2z"/><clipPath id="S"><path fill="#fff" d="M0 0h32v32H0z"/></clipPath></defs></svg>